<?xml version="1.0" encoding="utf-8"?>
<!-- Generator: Adobe Illustrator 21.1.0, SVG Export Plug-In . SVG Version: 6.00 Build 0)  -->
<svg version="1.1" id="Layer_1" xmlns="http://www.w3.org/2000/svg" xmlns:xlink="http://www.w3.org/1999/xlink" x="0px" y="0px"
	 viewBox="0 0 896.5 896.5" style="enable-background:new 0 0 896.5 896.5;" xml:space="preserve">
<style type="text/css">
	.st0{opacity:0.9;filter:url(#b);enable-background:new    ;}
	.st1{fill:url(#SVGID_1_);}
	.st2{opacity:0.9;filter:url(#d);enable-background:new    ;}
	.st3{fill:url(#SVGID_2_);}
</style>
<filter  filterUnits="userSpaceOnUse" height="896.528" id="d" width="896.528" x="0" y="0">
	<feOffset  dy="8"></feOffset>
	<feGaussianBlur  result="blur-2" stdDeviation="8"></feGaussianBlur>
	<feFlood  flood-opacity=".2"></feFlood>
	<feComposite  in2="blur-2" operator="in"></feComposite>
	<feComposite  in="SourceGraphic" operator="over"></feComposite>
</filter>
<filter  filterUnits="userSpaceOnUse" height="845.356" id="b" width="845.356" x="27" y="26">
	<feOffset  dy="8"></feOffset>
	<feGaussianBlur  result="blur" stdDeviation="8"></feGaussianBlur>
	<feFlood  flood-opacity=".149"></feFlood>
	<feComposite  in2="blur" operator="in"></feComposite>
	<feComposite  in="SourceGraphic" operator="over"></feComposite>
</filter>
<g class="st0">
	
		<linearGradient id="SVGID_1_" gradientUnits="userSpaceOnUse" x1="73.2779" y1="1115.7362" x2="74.2779" y2="1114.7362" gradientTransform="matrix(253.571 543.7847 543.7847 -253.571 -624706.625 243112.9062)">
		<stop  offset="0" style="stop-color:#B4CC5F"/>
		<stop  offset="1" style="stop-color:#95FF55"/>
	</linearGradient>
	<path class="st1" d="M611.7,78.3l219.8,471.3c9.3,20,0.7,43.8-19.3,53.2L340.8,822.5c-20,9.3-43.8,0.7-53.2-19.3L67.9,331.8
		c-9.3-20-0.7-43.8,19.3-53.2L558.5,58.9C578.5,49.6,602.3,58.2,611.7,78.3z"/>
</g>
<g class="st2">
	<linearGradient id="SVGID_2_" gradientUnits="userSpaceOnUse" x1="454.3869" y1="150.7754" x2="442.3869" y2="717.7754">
		<stop  offset="0" style="stop-color:#DC3634"/>
		<stop  offset="1" style="stop-color:#D40035"/>
	</linearGradient>
	<path class="st3" d="M476.5,44.3L844.2,412c15.6,15.6,15.6,40.9,0,56.6L476.5,836.2c-15.6,15.6-40.9,15.6-56.6,0L52.3,468.5
		c-15.6-15.6-15.6-40.9,0-56.6L420,44.3C435.6,28.7,460.9,28.7,476.5,44.3z"/>
</g>
</svg>
